<svg xmlns="http://www.w3.org/2000/svg" xmlns:xlink="http://www.w3.org/1999/xlink" width="1920" zoomAndPan="magnify" viewBox="0 0 1440 809.999993" height="1080" preserveAspectRatio="xMidYMid meet" version="1.0"><defs><g/><clipPath id="b4cece168f"><path d="M 674.566406 36.199219 L 686.207031 36.199219 L 686.207031 45.695312 L 674.566406 45.695312 Z M 674.566406 36.199219 " clip-rule="nonzero"/></clipPath><clipPath id="e630d5ac4f"><path d="M 675.027344 37.746094 C 674.117188 39.191406 674.75 40.59375 675.582031 41.339844 L 680.464844 45.695312 L 685.238281 41.355469 C 686.015625 40.554688 686.304688 39.703125 686.148438 38.753906 C 685.921875 37.445312 684.757812 36.425781 683.324219 36.28125 C 682.441406 36.195312 681.59375 36.425781 680.929688 36.9375 C 680.75 37.074219 680.589844 37.230469 680.449219 37.398438 C 680.285156 37.207031 680.089844 37.03125 679.871094 36.878906 C 679.109375 36.339844 678.136719 36.125 677.203125 36.289062 C 676.320312 36.449219 675.527344 36.980469 675.027344 37.746094 Z M 675.027344 37.746094 " clip-rule="nonzero"/></clipPath></defs><rect x="-144" width="1728" fill="#ffffff" y="-80.999999" height="971.999992" fill-opacity="1"/><rect x="-144" width="1728" fill="#000000" y="-80.999999" height="971.999992" fill-opacity="1"/><path fill="#000000" d="M 424.601562 17.265625 L 992.242188 17.265625 C 1008.550781 17.265625 1021.769531 30.484375 1021.769531 46.789062 L 1021.769531 105.839844 C 1021.769531 122.144531 1008.550781 135.363281 992.242188 135.363281 L 424.601562 135.363281 C 408.296875 135.363281 395.078125 122.144531 395.078125 105.839844 L 395.078125 46.789062 C 395.078125 30.484375 408.296875 17.265625 424.601562 17.265625 Z M 424.601562 17.265625 " fill-opacity="1" fill-rule="nonzero"/><g fill="#ffffff" fill-opacity="1"><g transform="translate(418.676983, 92.81498)"><g><path d="M 69.4375 -34.21875 C 65.625 -32.175781 61.101562 -28.800781 55.875 -24.09375 C 50.644531 -19.394531 45.671875 -14.472656 40.953125 -9.328125 C 37.210938 -5.117188 34.335938 -1.597656 32.328125 1.234375 C 30.328125 4.066406 29.328125 5.914062 29.328125 6.78125 C 29.328125 7.09375 30.347656 6.816406 32.390625 5.953125 C 32.585938 5.878906 32.664062 5.863281 32.625 5.90625 C 31.957031 6.769531 31.015625 7.46875 29.796875 8 C 28.578125 8.53125 27.59375 8.796875 26.84375 8.796875 C 26.332031 8.796875 25.878906 8.566406 25.484375 8.109375 C 25.085938 7.660156 24.890625 7.160156 24.890625 6.609375 C 24.890625 4.921875 26.460938 1.5625 29.609375 -3.46875 C 32.765625 -8.507812 36.226562 -13.644531 40 -18.875 C 43.78125 -24.113281 47.242188 -29.316406 50.390625 -34.484375 C 53.535156 -39.660156 55.109375 -43.171875 55.109375 -45.015625 C 55.109375 -47.179688 53.472656 -48.265625 50.203125 -48.265625 C 47.097656 -48.265625 43.488281 -47.300781 39.375 -45.375 C 35.269531 -43.445312 31.359375 -41.066406 27.640625 -38.234375 C 23.921875 -35.398438 20.425781 -32.488281 17.15625 -29.5 C 13.894531 -26.507812 11.300781 -23.832031 9.375 -21.46875 C 7.445312 -19.113281 6.484375 -17.5625 6.484375 -16.8125 C 6.484375 -16.101562 6.878906 -15.75 7.671875 -15.75 C 8.535156 -15.75 9.5 -15.90625 10.5625 -16.21875 C 10.5625 -15.945312 9.910156 -15.554688 8.609375 -15.046875 C 7.316406 -14.535156 6.332031 -14.28125 5.65625 -14.28125 C 4.757812 -14.28125 4.015625 -14.59375 3.421875 -15.21875 C 2.828125 -15.851562 2.53125 -16.617188 2.53125 -17.515625 C 2.53125 -19.835938 4.203125 -22.847656 7.546875 -26.546875 C 10.890625 -30.242188 14.941406 -33.789062 19.703125 -37.1875 C 24.460938 -40.59375 29.679688 -43.535156 35.359375 -46.015625 C 41.046875 -48.492188 45.992188 -49.734375 50.203125 -49.734375 C 52.992188 -49.734375 55.128906 -49.0625 56.609375 -47.71875 C 58.085938 -46.382812 58.828125 -44.5 58.828125 -42.0625 C 58.828125 -37.695312 52.945312 -27.550781 41.1875 -11.625 C 46.414062 -17.519531 51.675781 -22.859375 56.96875 -27.640625 C 62.257812 -32.421875 66.488281 -35.910156 69.65625 -38.109375 C 72.820312 -40.316406 74.894531 -41.421875 75.875 -41.421875 C 76.894531 -41.421875 77.984375 -40.992188 79.140625 -40.140625 C 80.304688 -39.296875 80.96875 -38.328125 81.125 -37.234375 C 80.925781 -37.546875 80.492188 -37.703125 79.828125 -37.703125 C 78.609375 -37.703125 75.15625 -33.503906 69.46875 -25.109375 C 63.789062 -16.710938 59.457031 -9.304688 56.46875 -2.890625 C 59.257812 -7.609375 63.003906 -12.5625 67.703125 -17.75 C 72.398438 -22.945312 76.921875 -27.40625 81.265625 -31.125 C 85.617188 -34.84375 89.554688 -37.921875 93.078125 -40.359375 C 96.597656 -42.796875 98.867188 -44.015625 99.890625 -44.015625 C 100.828125 -44.015625 101.863281 -43.453125 103 -42.328125 C 104.144531 -41.210938 104.78125 -40.28125 104.90625 -39.53125 C 104.550781 -39.769531 103.921875 -39.890625 103.015625 -39.890625 C 101.710938 -39.890625 99.445312 -38.234375 96.21875 -34.921875 C 93 -31.617188 89.738281 -27.71875 86.4375 -23.21875 C 83.132812 -18.71875 80.203125 -13.898438 77.640625 -8.765625 C 75.085938 -3.628906 73.8125 0.53125 73.8125 3.71875 C 73.8125 6.550781 74.488281 8.578125 75.84375 9.796875 C 77.195312 11.015625 79.445312 11.582031 82.59375 11.5 C 85.195312 11.425781 88.328125 10.648438 91.984375 9.171875 C 95.640625 7.703125 98.609375 6.179688 100.890625 4.609375 C 98.765625 6.566406 96.265625 8.222656 93.390625 9.578125 C 90.523438 10.941406 88.265625 11.835938 86.609375 12.265625 C 84.960938 12.703125 83.566406 12.976562 82.421875 13.09375 C 81.554688 13.175781 80.945312 13.21875 80.59375 13.21875 C 77.40625 13.21875 74.847656 12.265625 72.921875 10.359375 C 70.992188 8.453125 70.03125 5.828125 70.03125 2.484375 C 70.03125 -0.191406 70.660156 -3.3125 71.921875 -6.875 C 73.179688 -10.4375 74.703125 -13.800781 76.484375 -16.96875 C 78.273438 -20.132812 80.085938 -23.003906 81.921875 -25.578125 C 83.753906 -28.148438 85.335938 -30.085938 86.671875 -31.390625 C 83.921875 -30.128906 80.023438 -27.128906 74.984375 -22.390625 C 69.953125 -17.648438 65.429688 -12.769531 61.421875 -7.75 C 57.410156 -2.738281 55.40625 0.6875 55.40625 2.53125 C 55.40625 3.039062 54.890625 3.023438 53.859375 2.484375 C 52.453125 1.773438 51.628906 0.847656 51.390625 -0.296875 C 51.347656 -0.453125 51.328125 -0.609375 51.328125 -0.765625 C 51.328125 -3.554688 53.722656 -9.226562 58.515625 -17.78125 C 63.316406 -26.34375 66.957031 -31.820312 69.4375 -34.21875 Z M 69.4375 -34.21875 "/></g></g></g><g fill="#ffffff" fill-opacity="1"><g transform="translate(503.507682, 92.81498)"><g><path d="M 1.53125 0.40625 C 1.257812 0.40625 1.023438 0.390625 0.828125 0.359375 C 0.316406 0.203125 -0.210938 -0.179688 -0.765625 -0.796875 C -1.316406 -1.410156 -1.59375 -1.972656 -1.59375 -2.484375 C -1.59375 -4.128906 -0.03125 -7.359375 3.09375 -12.171875 C 6.21875 -16.992188 8.765625 -20.191406 10.734375 -21.765625 C 10.972656 -22.003906 11.269531 -22.125 11.625 -22.125 C 12.289062 -22.125 13.078125 -21.671875 13.984375 -20.765625 C 14.890625 -19.859375 15.34375 -19.035156 15.34375 -18.296875 C 15.300781 -18.210938 15.269531 -18.179688 15.25 -18.203125 C 15.226562 -18.222656 15.140625 -18.257812 14.984375 -18.3125 C 14.828125 -18.375 14.691406 -18.40625 14.578125 -18.40625 C 13.515625 -18.519531 11.5 -16.335938 8.53125 -11.859375 C 5.5625 -7.378906 3.835938 -4.347656 3.359375 -2.765625 C 5.878906 -3.441406 11.148438 -7.65625 19.171875 -15.40625 C 19.453125 -15.59375 19.648438 -15.550781 19.765625 -15.28125 C 19.804688 -15.195312 19.785156 -15.117188 19.703125 -15.046875 C 10.378906 -4.972656 4.320312 0.175781 1.53125 0.40625 Z M 17.109375 -31.15625 C 18.171875 -31.3125 19.3125 -30.679688 20.53125 -29.265625 C 21.039062 -28.597656 21.257812 -28.101562 21.1875 -27.78125 L 21 -27.84375 C 20.925781 -27.84375 20.847656 -27.851562 20.765625 -27.875 C 20.691406 -27.894531 20.570312 -27.894531 20.40625 -27.875 C 20.25 -27.851562 20.09375 -27.804688 19.9375 -27.734375 C 19.46875 -27.535156 18.703125 -26.972656 17.640625 -26.046875 C 16.578125 -25.117188 15.867188 -24.398438 15.515625 -23.890625 C 15.085938 -23.421875 14.632812 -23.363281 14.15625 -23.71875 C 13.6875 -24.070312 13.429688 -24.546875 13.390625 -25.140625 C 13.347656 -26.003906 13.769531 -27.160156 14.65625 -28.609375 C 15.539062 -30.066406 16.359375 -30.914062 17.109375 -31.15625 Z M 17.109375 -31.15625 "/></g></g></g><g fill="#ffffff" fill-opacity="1"><g transform="translate(516.780917, 92.81498)"><g><path d="M 38.9375 -10.671875 C 33 -3.796875 29.28125 0.921875 27.78125 3.484375 C 26.175781 6.160156 25.90625 7.8125 26.96875 8.4375 C 26.644531 8.519531 26.347656 8.5625 26.078125 8.5625 C 25.328125 8.5625 24.707031 8.234375 24.21875 7.578125 C 23.726562 6.929688 23.484375 6.078125 23.484375 5.015625 C 23.523438 0.453125 27.5 -7.253906 35.40625 -18.109375 C 34.96875 -19.679688 34.710938 -20.800781 34.640625 -21.46875 C 34.472656 -22.570312 34.507812 -23.457031 34.75 -24.125 C 35.539062 -25.695312 36.898438 -26.742188 38.828125 -27.265625 C 39.410156 -27.453125 39.722656 -27.46875 39.765625 -27.3125 C 39.765625 -27.28125 39.707031 -27.222656 39.59375 -27.140625 C 39.082031 -26.785156 38.828125 -26.15625 38.828125 -25.25 C 38.828125 -24.738281 38.921875 -24.050781 39.109375 -23.1875 C 41.941406 -27 44.007812 -29.816406 45.3125 -31.640625 C 46.613281 -33.472656 48.03125 -35.664062 49.5625 -38.21875 C 51.09375 -40.78125 52.035156 -42.8125 52.390625 -44.3125 C 52.628906 -45.25 52.453125 -45.953125 51.859375 -46.421875 C 51.265625 -46.898438 50.5 -47.160156 49.5625 -47.203125 C 45.75 -47.273438 41.144531 -46.050781 35.75 -43.53125 C 30.363281 -41.019531 25.4375 -38.070312 20.96875 -34.6875 C 16.507812 -31.3125 12.820312 -27.820312 9.90625 -24.21875 C 7 -20.625 5.859375 -17.84375 6.484375 -15.875 C 6.679688 -15.238281 7.429688 -14.921875 8.734375 -14.921875 C 9.515625 -14.921875 10.378906 -15.082031 11.328125 -15.40625 C 11.328125 -15.238281 11.0625 -15.007812 10.53125 -14.71875 C 10 -14.425781 9.3125 -14.148438 8.46875 -13.890625 C 7.625 -13.640625 6.847656 -13.515625 6.140625 -13.515625 C 5.035156 -13.546875 4.109375 -13.882812 3.359375 -14.53125 C 2.609375 -15.1875 2.21875 -15.945312 2.1875 -16.8125 C 2.03125 -20.082031 3.601562 -23.644531 6.90625 -27.5 C 10.207031 -31.351562 14.304688 -34.8125 19.203125 -37.875 C 24.097656 -40.945312 29.4375 -43.515625 35.21875 -45.578125 C 41 -47.640625 46.132812 -48.671875 50.625 -48.671875 C 52.550781 -48.671875 53.992188 -48.21875 54.953125 -47.3125 C 55.921875 -46.414062 56.425781 -45.238281 56.46875 -43.78125 C 56.5 -42.40625 56.160156 -40.8125 55.453125 -39 C 54.742188 -37.1875 53.5625 -35.019531 51.90625 -32.5 C 50.257812 -29.988281 48.785156 -27.835938 47.484375 -26.046875 C 46.191406 -24.253906 44.328125 -21.765625 41.890625 -18.578125 C 41.453125 -18.035156 41.140625 -17.625 40.953125 -17.34375 C 40.953125 -17.144531 41.164062 -16.691406 41.59375 -15.984375 C 43.09375 -17.753906 44.898438 -19.78125 47.015625 -22.0625 C 55.597656 -31.34375 63.867188 -38.6875 71.828125 -44.09375 C 79.796875 -49.507812 86.140625 -52.21875 90.859375 -52.21875 C 91.566406 -52.21875 92.144531 -51.929688 92.59375 -51.359375 C 93.050781 -50.785156 93.300781 -50.1875 93.34375 -49.5625 C 93.375 -48.257812 92.410156 -46.488281 90.453125 -44.25 C 90.878906 -45.039062 91.171875 -45.984375 91.328125 -47.078125 C 91.328125 -47.585938 91.035156 -47.90625 90.453125 -48.03125 C 87.140625 -48.65625 81.398438 -46.429688 73.234375 -41.359375 C 65.078125 -36.285156 56.578125 -29.164062 47.734375 -20 C 45.328125 -17.519531 43.535156 -15.632812 42.359375 -14.34375 C 43.816406 -11.382812 45.535156 -8.53125 47.515625 -5.78125 C 49.503906 -3.03125 51.738281 -0.457031 54.21875 1.9375 C 56.695312 4.34375 59.453125 6.265625 62.484375 7.703125 C 65.515625 9.140625 68.539062 9.859375 71.5625 9.859375 C 75.613281 9.859375 79.53125 8.578125 83.3125 6.015625 C 83.582031 5.816406 83.765625 5.726562 83.859375 5.75 C 83.960938 5.769531 83.894531 5.878906 83.65625 6.078125 C 78.9375 10.015625 74.039062 11.984375 68.96875 11.984375 C 65.820312 11.984375 62.675781 11.253906 59.53125 9.796875 C 56.382812 8.335938 53.519531 6.414062 50.9375 4.03125 C 48.363281 1.65625 46.101562 -0.75 44.15625 -3.1875 C 42.207031 -5.625 40.46875 -8.117188 38.9375 -10.671875 Z M 37.703125 -12.984375 C 34.554688 -8.773438 32.195312 -5.390625 30.625 -2.828125 C 32.507812 -5.390625 35.023438 -8.457031 38.171875 -12.03125 Z M 37.703125 -12.984375 "/></g></g></g><g fill="#ffffff" fill-opacity="1"><g transform="translate(575.124153, 92.81498)"><g><path d="M 13.515625 -4.890625 C 14.222656 -7.054688 15.363281 -9.179688 16.9375 -11.265625 C 15.394531 -9.734375 12.644531 -7.40625 8.6875 -4.28125 C 4.738281 -1.15625 2.238281 0.40625 1.1875 0.40625 C 1.0625 0.40625 0.882812 0.347656 0.65625 0.234375 C 0.101562 -0.0351562 -0.46875 -0.613281 -1.0625 -1.5 C -1.65625 -2.382812 -1.953125 -3.125 -1.953125 -3.71875 C -1.953125 -5.289062 -1.1875 -7.207031 0.34375 -9.46875 C 1.882812 -11.726562 3.804688 -13.878906 6.109375 -15.921875 C 8.410156 -17.972656 11.054688 -19.71875 14.046875 -21.15625 C 17.035156 -22.59375 19.828125 -23.3125 22.421875 -23.3125 C 23.753906 -23.3125 24.953125 -23.003906 26.015625 -22.390625 C 27.078125 -21.773438 27.609375 -20.84375 27.609375 -19.59375 C 27.609375 -18.726562 27.234375 -17.800781 26.484375 -16.8125 C 26.410156 -16.8125 26.351562 -16.832031 26.3125 -16.875 C 26.75 -17.65625 26.96875 -18.363281 26.96875 -19 C 26.96875 -20.8125 26.003906 -21.65625 24.078125 -21.53125 C 20.804688 -21.375 16.953125 -19.410156 12.515625 -15.640625 C 10.816406 -14.179688 9.148438 -12.4375 7.515625 -10.40625 C 5.890625 -8.382812 4.679688 -6.691406 3.890625 -5.328125 C 3.109375 -3.972656 2.816406 -3.238281 3.015625 -3.125 C 3.128906 -3.082031 3.265625 -3.082031 3.421875 -3.125 C 4.328125 -3.4375 6.34375 -4.679688 9.46875 -6.859375 C 12.59375 -9.046875 15.003906 -10.867188 16.703125 -12.328125 C 16.734375 -12.367188 17.269531 -12.878906 18.3125 -13.859375 C 19.363281 -14.847656 20.3125 -15.695312 21.15625 -16.40625 C 22 -17.113281 22.632812 -17.582031 23.0625 -17.8125 C 23.613281 -18.09375 24.28125 -17.710938 25.0625 -16.671875 C 25.851562 -15.628906 26.171875 -14.890625 26.015625 -14.453125 C 25.941406 -14.648438 25.410156 -14.207031 24.421875 -13.125 C 23.441406 -12.039062 22.367188 -10.679688 21.203125 -9.046875 C 20.046875 -7.421875 19.191406 -6.019531 18.640625 -4.84375 C 18.242188 -3.9375 18.046875 -3.265625 18.046875 -2.828125 C 20.367188 -3.492188 25.382812 -7.445312 33.09375 -14.6875 C 33.445312 -15 33.703125 -15.234375 33.859375 -15.390625 C 34.023438 -15.554688 34.164062 -15.539062 34.28125 -15.34375 L 34.28125 -15.046875 C 24.84375 -4.742188 18.742188 0.40625 15.984375 0.40625 C 15.710938 0.40625 15.378906 0.289062 14.984375 0.0625 C 14.515625 -0.21875 14.070312 -0.625 13.65625 -1.15625 C 13.238281 -1.6875 13.03125 -2.207031 13.03125 -2.71875 C 13.03125 -2.988281 13.191406 -3.710938 13.515625 -4.890625 Z M 13.515625 -4.890625 "/></g></g></g><g fill="#ffffff" fill-opacity="1"><g transform="translate(602.673479, 92.81498)"><g><path d="M 28.4375 -18.234375 C 27.570312 -17.328125 25.070312 -14.335938 20.9375 -9.265625 C 18.9375 -6.742188 16.144531 -2.4375 12.5625 3.65625 C 8.988281 9.75 5.960938 15.140625 3.484375 19.828125 C 5.640625 16.835938 8.425781 13.695312 11.84375 10.40625 C 15.269531 7.125 17.457031 5.328125 18.40625 5.015625 L 18.703125 5.375 C 14.921875 8.394531 11.257812 12.351562 7.71875 17.25 C 4.1875 22.15625 2.222656 25.507812 1.828125 27.3125 C 1.710938 27.4375 1.5 27.5 1.1875 27.5 C 0.125 27.613281 -0.679688 27.148438 -1.234375 26.109375 C -1.785156 25.066406 -2.003906 24.171875 -1.890625 23.421875 C -1.804688 22.515625 -0.976562 20.234375 0.59375 16.578125 C 2.75 11.859375 5.609375 6.410156 9.171875 0.234375 C 12.734375 -5.941406 16.34375 -11.132812 20 -15.34375 C 19.601562 -14.945312 18.921875 -14.242188 17.953125 -13.234375 C 16.992188 -12.234375 16.257812 -11.476562 15.75 -10.96875 C 15.238281 -10.457031 14.507812 -9.71875 13.5625 -8.75 C 12.625 -7.789062 11.859375 -7.046875 11.265625 -6.515625 C 10.679688 -5.984375 9.972656 -5.320312 9.140625 -4.53125 C 8.316406 -3.75 7.609375 -3.128906 7.015625 -2.671875 C 6.429688 -2.222656 5.820312 -1.765625 5.1875 -1.296875 C 4.5625 -0.828125 4 -0.460938 3.5 -0.203125 C 3.007812 0.046875 2.570312 0.210938 2.1875 0.296875 L 1.71875 0.296875 C 1.195312 0.296875 0.601562 -0.0351562 -0.0625 -0.703125 C -0.726562 -1.378906 -1.0625 -2.050781 -1.0625 -2.71875 C -1.0625 -3.9375 -0.40625 -5.8125 0.90625 -8.34375 C 2.226562 -10.882812 3.773438 -13.394531 5.546875 -15.875 C 7.628906 -18.863281 9.597656 -21.101562 11.453125 -22.59375 C 11.679688 -22.832031 11.953125 -22.953125 12.265625 -22.953125 C 12.972656 -22.953125 13.757812 -22.5 14.625 -21.59375 C 15.5 -20.6875 15.9375 -19.859375 15.9375 -19.109375 C 15.9375 -18.992188 15.875 -18.976562 15.75 -19.0625 C 15.707031 -19.09375 15.664062 -19.117188 15.625 -19.140625 C 15.59375 -19.160156 15.546875 -19.179688 15.484375 -19.203125 C 15.429688 -19.222656 15.363281 -19.234375 15.28125 -19.234375 C 14.488281 -19.347656 12.695312 -17.554688 9.90625 -13.859375 C 8.375 -11.898438 7.007812 -9.816406 5.8125 -7.609375 C 4.613281 -5.410156 4.015625 -3.894531 4.015625 -3.0625 C 5.273438 -3.570312 7.082031 -4.800781 9.4375 -6.75 C 11.800781 -8.695312 13.867188 -10.535156 15.640625 -12.265625 C 15.796875 -12.390625 17.335938 -13.945312 20.265625 -16.9375 C 23.191406 -19.925781 25.304688 -21.929688 26.609375 -22.953125 C 26.878906 -23.191406 27.175781 -23.3125 27.5 -23.3125 C 28.164062 -23.3125 28.941406 -22.859375 29.828125 -21.953125 C 30.710938 -21.046875 31.15625 -20.21875 31.15625 -19.46875 C 31.15625 -19.394531 31.078125 -19.375 30.921875 -19.40625 C 30.765625 -19.53125 30.625 -19.59375 30.5 -19.59375 C 30.03125 -19.664062 29.34375 -19.210938 28.4375 -18.234375 Z M 28.4375 -18.234375 "/></g></g></g><g fill="#ffffff" fill-opacity="1"><g transform="translate(627.096223, 92.81498)"><g><path d="M 9.203125 -21.953125 C 12.148438 -26.546875 15.648438 -31.5 19.703125 -36.8125 C 21.628906 -39.332031 23.265625 -41.125 24.609375 -42.1875 C 25.585938 -42.96875 26.3125 -43.359375 26.78125 -43.359375 C 28.476562 -43.441406 29.957031 -42.796875 31.21875 -41.421875 C 31.601562 -40.984375 31.71875 -40.742188 31.5625 -40.703125 C 31.519531 -40.671875 31.441406 -40.691406 31.328125 -40.765625 C 30.929688 -40.960938 30.476562 -40.941406 29.96875 -40.703125 C 29.457031 -40.472656 28.847656 -39.992188 28.140625 -39.265625 C 27.429688 -38.535156 26.859375 -37.925781 26.421875 -37.4375 C 25.992188 -36.945312 25.335938 -36.148438 24.453125 -35.046875 C 23.566406 -33.941406 23.023438 -33.253906 22.828125 -32.984375 C 20.941406 -30.578125 18.304688 -26.898438 14.921875 -21.953125 C 8.984375 -12.984375 5.328125 -6.628906 3.953125 -2.890625 C 4.421875 -2.847656 5.144531 -3.113281 6.125 -3.6875 C 7.113281 -4.257812 8.316406 -5.144531 9.734375 -6.34375 C 11.148438 -7.539062 12.347656 -8.570312 13.328125 -9.4375 C 14.316406 -10.300781 15.585938 -11.46875 17.140625 -12.9375 C 18.691406 -14.414062 19.566406 -15.234375 19.765625 -15.390625 C 19.960938 -15.554688 20.097656 -15.539062 20.171875 -15.34375 L 20.171875 -15.046875 C 17.972656 -12.523438 15.023438 -9.472656 11.328125 -5.890625 C 7.628906 -2.316406 5.015625 -0.253906 3.484375 0.296875 C 2.890625 0.535156 2.257812 0.457031 1.59375 0.0625 C 1.320312 -0.0625 0.9375 -0.390625 0.4375 -0.921875 C -0.0507812 -1.453125 -0.375 -1.910156 -0.53125 -2.296875 C -0.644531 -2.535156 -0.703125 -2.832031 -0.703125 -3.1875 C -0.703125 -5.351562 2.597656 -11.609375 9.203125 -21.953125 Z M 9.203125 -21.953125 "/></g></g></g><g fill="#ffffff" fill-opacity="1"><g transform="translate(641.313332, 92.81498)"><g><path d="M 13.515625 -4.890625 C 14.222656 -7.054688 15.363281 -9.179688 16.9375 -11.265625 C 15.394531 -9.734375 12.644531 -7.40625 8.6875 -4.28125 C 4.738281 -1.15625 2.238281 0.40625 1.1875 0.40625 C 1.0625 0.40625 0.882812 0.347656 0.65625 0.234375 C 0.101562 -0.0351562 -0.46875 -0.613281 -1.0625 -1.5 C -1.65625 -2.382812 -1.953125 -3.125 -1.953125 -3.71875 C -1.953125 -5.289062 -1.1875 -7.207031 0.34375 -9.46875 C 1.882812 -11.726562 3.804688 -13.878906 6.109375 -15.921875 C 8.410156 -17.972656 11.054688 -19.71875 14.046875 -21.15625 C 17.035156 -22.59375 19.828125 -23.3125 22.421875 -23.3125 C 23.753906 -23.3125 24.953125 -23.003906 26.015625 -22.390625 C 27.078125 -21.773438 27.609375 -20.84375 27.609375 -19.59375 C 27.609375 -18.726562 27.234375 -17.800781 26.484375 -16.8125 C 26.410156 -16.8125 26.351562 -16.832031 26.3125 -16.875 C 26.75 -17.65625 26.96875 -18.363281 26.96875 -19 C 26.96875 -20.8125 26.003906 -21.65625 24.078125 -21.53125 C 20.804688 -21.375 16.953125 -19.410156 12.515625 -15.640625 C 10.816406 -14.179688 9.148438 -12.4375 7.515625 -10.40625 C 5.890625 -8.382812 4.679688 -6.691406 3.890625 -5.328125 C 3.109375 -3.972656 2.816406 -3.238281 3.015625 -3.125 C 3.128906 -3.082031 3.265625 -3.082031 3.421875 -3.125 C 4.328125 -3.4375 6.34375 -4.679688 9.46875 -6.859375 C 12.59375 -9.046875 15.003906 -10.867188 16.703125 -12.328125 C 16.734375 -12.367188 17.269531 -12.878906 18.3125 -13.859375 C 19.363281 -14.847656 20.3125 -15.695312 21.15625 -16.40625 C 22 -17.113281 22.632812 -17.582031 23.0625 -17.8125 C 23.613281 -18.09375 24.28125 -17.710938 25.0625 -16.671875 C 25.851562 -15.628906 26.171875 -14.890625 26.015625 -14.453125 C 25.941406 -14.648438 25.410156 -14.207031 24.421875 -13.125 C 23.441406 -12.039062 22.367188 -10.679688 21.203125 -9.046875 C 20.046875 -7.421875 19.191406 -6.019531 18.640625 -4.84375 C 18.242188 -3.9375 18.046875 -3.265625 18.046875 -2.828125 C 20.367188 -3.492188 25.382812 -7.445312 33.09375 -14.6875 C 33.445312 -15 33.703125 -15.234375 33.859375 -15.390625 C 34.023438 -15.554688 34.164062 -15.539062 34.28125 -15.34375 L 34.28125 -15.046875 C 24.84375 -4.742188 18.742188 0.40625 15.984375 0.40625 C 15.710938 0.40625 15.378906 0.289062 14.984375 0.0625 C 14.515625 -0.21875 14.070312 -0.625 13.65625 -1.15625 C 13.238281 -1.6875 13.03125 -2.207031 13.03125 -2.71875 C 13.03125 -2.988281 13.191406 -3.710938 13.515625 -4.890625 Z M 13.515625 -4.890625 "/></g></g></g><g fill="#ffffff" fill-opacity="1"><g transform="translate(668.862669, 92.81498)"><g/></g></g><g fill="#ffffff" fill-opacity="1"><g transform="translate(683.787686, 92.81498)"><g><path d="M 13.515625 -4.890625 C 14.222656 -7.054688 15.363281 -9.179688 16.9375 -11.265625 C 15.394531 -9.734375 12.644531 -7.40625 8.6875 -4.28125 C 4.738281 -1.15625 2.238281 0.40625 1.1875 0.40625 C 1.0625 0.40625 0.882812 0.347656 0.65625 0.234375 C 0.101562 -0.0351562 -0.46875 -0.613281 -1.0625 -1.5 C -1.65625 -2.382812 -1.953125 -3.125 -1.953125 -3.71875 C -1.953125 -5.289062 -1.1875 -7.207031 0.34375 -9.46875 C 1.882812 -11.726562 3.804688 -13.878906 6.109375 -15.921875 C 8.410156 -17.972656 11.054688 -19.71875 14.046875 -21.15625 C 17.035156 -22.59375 19.828125 -23.3125 22.421875 -23.3125 C 23.753906 -23.3125 24.953125 -23.003906 26.015625 -22.390625 C 27.078125 -21.773438 27.609375 -20.84375 27.609375 -19.59375 C 27.609375 -18.726562 27.234375 -17.800781 26.484375 -16.8125 C 26.410156 -16.8125 26.351562 -16.832031 26.3125 -16.875 C 26.75 -17.65625 26.96875 -18.363281 26.96875 -19 C 26.96875 -20.8125 26.003906 -21.65625 24.078125 -21.53125 C 20.804688 -21.375 16.953125 -19.410156 12.515625 -15.640625 C 10.816406 -14.179688 9.148438 -12.4375 7.515625 -10.40625 C 5.890625 -8.382812 4.679688 -6.691406 3.890625 -5.328125 C 3.109375 -3.972656 2.816406 -3.238281 3.015625 -3.125 C 3.128906 -3.082031 3.265625 -3.082031 3.421875 -3.125 C 4.328125 -3.4375 6.34375 -4.679688 9.46875 -6.859375 C 12.59375 -9.046875 15.003906 -10.867188 16.703125 -12.328125 C 16.734375 -12.367188 17.269531 -12.878906 18.3125 -13.859375 C 19.363281 -14.847656 20.3125 -15.695312 21.15625 -16.40625 C 22 -17.113281 22.632812 -17.582031 23.0625 -17.8125 C 23.613281 -18.09375 24.28125 -17.710938 25.0625 -16.671875 C 25.851562 -15.628906 26.171875 -14.890625 26.015625 -14.453125 C 25.941406 -14.648438 25.410156 -14.207031 24.421875 -13.125 C 23.441406 -12.039062 22.367188 -10.679688 21.203125 -9.046875 C 20.046875 -7.421875 19.191406 -6.019531 18.640625 -4.84375 C 18.242188 -3.9375 18.046875 -3.265625 18.046875 -2.828125 C 20.367188 -3.492188 25.382812 -7.445312 33.09375 -14.6875 C 33.445312 -15 33.703125 -15.234375 33.859375 -15.390625 C 34.023438 -15.554688 34.164062 -15.539062 34.28125 -15.34375 L 34.28125 -15.046875 C 24.84375 -4.742188 18.742188 0.40625 15.984375 0.40625 C 15.710938 0.40625 15.378906 0.289062 14.984375 0.0625 C 14.515625 -0.21875 14.070312 -0.625 13.65625 -1.15625 C 13.238281 -1.6875 13.03125 -2.207031 13.03125 -2.71875 C 13.03125 -2.988281 13.191406 -3.710938 13.515625 -4.890625 Z M 13.515625 -4.890625 "/></g></g></g><g fill="#ffffff" fill-opacity="1"><g transform="translate(711.337002, 92.81498)"><g><path d="M 29.140625 -19.171875 C 28.203125 -18.421875 26.1875 -15.8125 23.09375 -11.34375 C 20.007812 -6.882812 18.445312 -4.023438 18.40625 -2.765625 C 20.726562 -3.398438 25.800781 -7.394531 33.625 -14.75 C 33.945312 -15.0625 34.1875 -15.28125 34.34375 -15.40625 C 34.539062 -15.59375 34.695312 -15.570312 34.8125 -15.34375 C 34.882812 -15.21875 34.882812 -15.117188 34.8125 -15.046875 C 31.3125 -11.234375 27.78125 -7.722656 24.21875 -4.515625 C 20.65625 -1.304688 18.085938 0.296875 16.515625 0.296875 C 15.960938 0.296875 15.351562 -0.113281 14.6875 -0.9375 C 13.976562 -1.769531 13.625 -2.539062 13.625 -3.25 C 13.625 -4.820312 14.84375 -7.492188 17.28125 -11.265625 C 19.71875 -15.046875 21.804688 -17.703125 23.546875 -19.234375 C 21.222656 -18.171875 18.238281 -16.191406 14.59375 -13.296875 C 10.957031 -10.410156 7.976562 -7.707031 5.65625 -5.1875 C 5.113281 -4.632812 4.410156 -3.8125 3.546875 -2.71875 C 2.753906 -1.769531 2.257812 -0.929688 2.0625 -0.203125 C 1.863281 0.523438 1.984375 0.988281 2.421875 1.1875 C 1.597656 1.375 0.847656 1.132812 0.171875 0.46875 C -0.492188 -0.195312 -0.960938 -1.019531 -1.234375 -2 C -1.429688 -2.75 -0.882812 -4.320312 0.40625 -6.71875 C 1.789062 -9.394531 3.660156 -12.382812 6.015625 -15.6875 C 8.609375 -19.351562 10.691406 -21.796875 12.265625 -23.015625 C 12.460938 -23.210938 12.71875 -23.3125 13.03125 -23.3125 C 13.78125 -23.3125 14.585938 -22.867188 15.453125 -21.984375 C 16.316406 -21.097656 16.75 -20.28125 16.75 -19.53125 C 16.75 -19.414062 16.671875 -19.394531 16.515625 -19.46875 C 16.484375 -19.507812 16.445312 -19.539062 16.40625 -19.5625 C 16.363281 -19.582031 16.3125 -19.597656 16.25 -19.609375 C 16.195312 -19.628906 16.128906 -19.640625 16.046875 -19.640625 C 15.691406 -19.679688 15.070312 -19.238281 14.1875 -18.3125 C 13.300781 -17.394531 12.347656 -16.265625 11.328125 -14.921875 C 7.828125 -10.285156 5.585938 -7.0625 4.609375 -5.25 C 5.191406 -6.113281 6.191406 -7.21875 7.609375 -8.5625 C 10.953125 -11.820312 14.707031 -15.046875 18.875 -18.234375 C 23.050781 -21.421875 25.628906 -23.015625 26.609375 -23.015625 C 27.273438 -23.015625 27.960938 -22.460938 28.671875 -21.359375 C 29.378906 -20.253906 29.535156 -19.523438 29.140625 -19.171875 Z M 29.140625 -19.171875 "/></g></g></g><g fill="#ffffff" fill-opacity="1"><g transform="translate(738.886317, 92.81498)"><g><path d="M 21.59375 -23.3125 C 22.738281 -23.3125 23.601562 -22.972656 24.1875 -22.296875 C 26.238281 -25.484375 29.640625 -30.320312 34.390625 -36.8125 C 36.398438 -39.375 38.035156 -41.164062 39.296875 -42.1875 C 40.273438 -42.96875 41.003906 -43.359375 41.484375 -43.359375 C 43.171875 -43.441406 44.644531 -42.796875 45.90625 -41.421875 C 46.375 -40.910156 46.488281 -40.671875 46.25 -40.703125 C 46.21875 -40.703125 46.160156 -40.722656 46.078125 -40.765625 C 45.648438 -40.960938 45.128906 -40.894531 44.515625 -40.5625 C 43.898438 -40.226562 43.207031 -39.65625 42.4375 -38.84375 C 41.675781 -38.039062 41.007812 -37.285156 40.4375 -36.578125 C 39.875 -35.867188 39.195312 -35.003906 38.40625 -33.984375 C 38.050781 -33.515625 37.796875 -33.179688 37.640625 -32.984375 C 35.554688 -30.390625 32.921875 -26.710938 29.734375 -21.953125 C 23.597656 -12.742188 19.800781 -6.3125 18.34375 -2.65625 C 18.78125 -2.695312 19.351562 -2.898438 20.0625 -3.265625 C 20.769531 -3.640625 21.582031 -4.179688 22.5 -4.890625 C 23.425781 -5.597656 24.300781 -6.285156 25.125 -6.953125 C 25.957031 -7.628906 26.929688 -8.46875 28.046875 -9.46875 C 29.171875 -10.46875 30.023438 -11.242188 30.609375 -11.796875 C 31.203125 -12.347656 31.976562 -13.078125 32.9375 -13.984375 C 33.90625 -14.890625 34.410156 -15.363281 34.453125 -15.40625 C 34.648438 -15.59375 34.804688 -15.570312 34.921875 -15.34375 C 35.003906 -15.21875 35.003906 -15.117188 34.921875 -15.046875 C 32.566406 -12.410156 29.550781 -9.3125 25.875 -5.75 C 22.195312 -2.1875 19.628906 -0.171875 18.171875 0.296875 C 17.578125 0.492188 16.925781 0.414062 16.21875 0.0625 C 15.675781 -0.25 15.164062 -0.691406 14.6875 -1.265625 C 14.21875 -1.835938 13.984375 -2.421875 13.984375 -3.015625 C 13.984375 -4.265625 15.378906 -7.445312 18.171875 -12.5625 C 17.929688 -12.363281 16.894531 -11.46875 15.0625 -9.875 C 13.238281 -8.289062 11.5 -6.796875 9.84375 -5.390625 C 8.195312 -3.992188 6.46875 -2.675781 4.65625 -1.4375 C 2.851562 -0.207031 1.597656 0.40625 0.890625 0.40625 C 0.378906 0.40625 -0.238281 -0.09375 -0.96875 -1.09375 C -1.695312 -2.09375 -2.0625 -2.925781 -2.0625 -3.59375 C -2.0625 -5.289062 -0.882812 -7.691406 1.46875 -10.796875 C 3.832031 -13.898438 6.507812 -16.4375 9.5 -18.40625 C 14.414062 -21.675781 18.445312 -23.3125 21.59375 -23.3125 Z M 19.828125 -15.28125 L 23.65625 -21.46875 C 22.875 -21.707031 22.050781 -21.707031 21.1875 -21.46875 C 18.78125 -20.84375 15.570312 -18.5625 11.5625 -14.625 C 9.945312 -13.09375 8.390625 -11.398438 6.890625 -9.546875 C 5.398438 -7.703125 4.300781 -6.195312 3.59375 -5.03125 C 2.882812 -3.875 2.609375 -3.238281 2.765625 -3.125 C 3.117188 -2.925781 5.210938 -4.175781 9.046875 -6.875 C 12.890625 -9.570312 16.484375 -12.375 19.828125 -15.28125 Z M 19.828125 -15.28125 "/></g></g></g><g fill="#ffffff" fill-opacity="1"><g transform="translate(767.084557, 92.81498)"><g/></g></g><g fill="#ffffff" fill-opacity="1"><g transform="translate(782.009574, 92.81498)"><g><path d="M 70.09375 -44.125 L 68.90625 -43.65625 C 68.082031 -43.300781 66.953125 -42.847656 65.515625 -42.296875 C 64.078125 -41.753906 62.453125 -41.144531 60.640625 -40.46875 C 58.835938 -39.800781 56.84375 -39.113281 54.65625 -38.40625 C 52.476562 -37.695312 50.316406 -37.046875 48.171875 -36.453125 C 46.023438 -35.867188 43.820312 -35.359375 41.5625 -34.921875 C 39.300781 -34.492188 37.25 -34.238281 35.40625 -34.15625 C 33.039062 -34.039062 31.097656 -34.21875 29.578125 -34.6875 C 28.066406 -35.164062 27.3125 -35.816406 27.3125 -36.640625 C 27.3125 -38.722656 28.285156 -40.796875 30.234375 -42.859375 C 32.179688 -44.929688 34.0625 -46.359375 35.875 -47.140625 C 32.726562 -44.421875 31.15625 -42.359375 31.15625 -40.953125 C 31.15625 -40.117188 31.664062 -39.5625 32.6875 -39.28125 C 33.707031 -39.007812 35.144531 -38.859375 37 -38.828125 C 41.4375 -38.785156 46.09375 -39.195312 50.96875 -40.0625 C 55.851562 -40.925781 59.9375 -41.898438 63.21875 -42.984375 C 66.5 -44.066406 69.40625 -45.050781 71.9375 -45.9375 C 74.476562 -46.820312 75.890625 -47.265625 76.171875 -47.265625 C 76.398438 -47.265625 76.613281 -46.96875 76.8125 -46.375 C 76.9375 -46.0625 76.921875 -45.90625 76.765625 -45.90625 C 76.796875 -45.90625 76.515625 -45.753906 75.921875 -45.453125 C 75.335938 -45.160156 74.460938 -44.71875 73.296875 -44.125 C 72.140625 -43.539062 70.773438 -42.820312 69.203125 -41.96875 C 67.628906 -41.125 65.8125 -40.113281 63.75 -38.9375 C 61.6875 -37.757812 59.519531 -36.484375 57.25 -35.109375 C 54.988281 -33.734375 52.53125 -32.160156 49.875 -30.390625 C 47.226562 -28.617188 44.585938 -26.773438 41.953125 -24.859375 C 39.316406 -22.953125 36.519531 -20.828125 33.5625 -18.484375 C 30.613281 -16.148438 27.765625 -13.785156 25.015625 -11.390625 C 24.503906 -10.953125 22.941406 -9.59375 20.328125 -7.3125 C 17.710938 -5.03125 15.578125 -3.125 13.921875 -1.59375 C 12.273438 -0.0625 10.757812 1.453125 9.375 2.953125 C 12.207031 1.960938 15.914062 1.191406 20.5 0.640625 C 25.082031 0.0976562 29.632812 -0.15625 34.15625 -0.125 C 44.625 0.0390625 51.863281 2.050781 55.875 5.90625 C 51.78125 3.382812 46 2.082031 38.53125 2 C 33.175781 1.96875 27.519531 2.53125 21.5625 3.6875 C 15.601562 4.84375 10.71875 6.238281 6.90625 7.875 C 3.09375 9.507812 1.1875 10.972656 1.1875 12.265625 C 1.144531 12.941406 0.90625 12.863281 0.46875 12.03125 C -0.113281 10.96875 -0.40625 9.867188 -0.40625 8.734375 C -0.375 5.628906 4.289062 0.179688 13.59375 -7.609375 C 22.894531 -15.398438 33.171875 -22.894531 44.421875 -30.09375 C 55.671875 -37.289062 64.226562 -41.96875 70.09375 -44.125 Z M 70.09375 -44.125 "/></g></g></g><g fill="#ffffff" fill-opacity="1"><g transform="translate(832.97881, 92.81498)"><g><path d="M 13.515625 -4.890625 C 14.222656 -7.054688 15.363281 -9.179688 16.9375 -11.265625 C 15.394531 -9.734375 12.644531 -7.40625 8.6875 -4.28125 C 4.738281 -1.15625 2.238281 0.40625 1.1875 0.40625 C 1.0625 0.40625 0.882812 0.347656 0.65625 0.234375 C 0.101562 -0.0351562 -0.46875 -0.613281 -1.0625 -1.5 C -1.65625 -2.382812 -1.953125 -3.125 -1.953125 -3.71875 C -1.953125 -5.289062 -1.1875 -7.207031 0.34375 -9.46875 C 1.882812 -11.726562 3.804688 -13.878906 6.109375 -15.921875 C 8.410156 -17.972656 11.054688 -19.71875 14.046875 -21.15625 C 17.035156 -22.59375 19.828125 -23.3125 22.421875 -23.3125 C 23.753906 -23.3125 24.953125 -23.003906 26.015625 -22.390625 C 27.078125 -21.773438 27.609375 -20.84375 27.609375 -19.59375 C 27.609375 -18.726562 27.234375 -17.800781 26.484375 -16.8125 C 26.410156 -16.8125 26.351562 -16.832031 26.3125 -16.875 C 26.75 -17.65625 26.96875 -18.363281 26.96875 -19 C 26.96875 -20.8125 26.003906 -21.65625 24.078125 -21.53125 C 20.804688 -21.375 16.953125 -19.410156 12.515625 -15.640625 C 10.816406 -14.179688 9.148438 -12.4375 7.515625 -10.40625 C 5.890625 -8.382812 4.679688 -6.691406 3.890625 -5.328125 C 3.109375 -3.972656 2.816406 -3.238281 3.015625 -3.125 C 3.128906 -3.082031 3.265625 -3.082031 3.421875 -3.125 C 4.328125 -3.4375 6.34375 -4.679688 9.46875 -6.859375 C 12.59375 -9.046875 15.003906 -10.867188 16.703125 -12.328125 C 16.734375 -12.367188 17.269531 -12.878906 18.3125 -13.859375 C 19.363281 -14.847656 20.3125 -15.695312 21.15625 -16.40625 C 22 -17.113281 22.632812 -17.582031 23.0625 -17.8125 C 23.613281 -18.09375 24.28125 -17.710938 25.0625 -16.671875 C 25.851562 -15.628906 26.171875 -14.890625 26.015625 -14.453125 C 25.941406 -14.648438 25.410156 -14.207031 24.421875 -13.125 C 23.441406 -12.039062 22.367188 -10.679688 21.203125 -9.046875 C 20.046875 -7.421875 19.191406 -6.019531 18.640625 -4.84375 C 18.242188 -3.9375 18.046875 -3.265625 18.046875 -2.828125 C 20.367188 -3.492188 25.382812 -7.445312 33.09375 -14.6875 C 33.445312 -15 33.703125 -15.234375 33.859375 -15.390625 C 34.023438 -15.554688 34.164062 -15.539062 34.28125 -15.34375 L 34.28125 -15.046875 C 24.84375 -4.742188 18.742188 0.40625 15.984375 0.40625 C 15.710938 0.40625 15.378906 0.289062 14.984375 0.0625 C 14.515625 -0.21875 14.070312 -0.625 13.65625 -1.15625 C 13.238281 -1.6875 13.03125 -2.207031 13.03125 -2.71875 C 13.03125 -2.988281 13.191406 -3.710938 13.515625 -4.890625 Z M 13.515625 -4.890625 "/></g></g></g><g fill="#ffffff" fill-opacity="1"><g transform="translate(860.528125, 92.81498)"><g><path d="M 4.125 -3.125 C 4.125 -2.34375 4.695312 -2.007812 5.84375 -2.125 C 9.582031 -2.519531 16.601562 -6.925781 26.90625 -15.34375 C 27.101562 -15.457031 27.238281 -15.414062 27.3125 -15.21875 C 27.351562 -15.144531 27.351562 -15.085938 27.3125 -15.046875 C 25.382812 -13.234375 23.710938 -11.707031 22.296875 -10.46875 C 20.878906 -9.226562 18.929688 -7.632812 16.453125 -5.6875 C 13.984375 -3.738281 11.632812 -2.234375 9.40625 -1.171875 C 7.1875 -0.117188 5.234375 0.40625 3.546875 0.40625 C 2.597656 0.40625 1.679688 0.0351562 0.796875 -0.703125 C -0.0859375 -1.453125 -0.609375 -2.300781 -0.765625 -3.25 C -0.847656 -3.832031 -0.8125 -4.421875 -0.65625 -5.015625 C -0.375 -6.390625 0.320312 -8.019531 1.4375 -9.90625 C 2.5625 -11.800781 4.050781 -13.648438 5.90625 -15.453125 C 8.300781 -17.816406 10.863281 -19.71875 13.59375 -21.15625 C 16.332031 -22.59375 18.765625 -23.3125 20.890625 -23.3125 C 21.515625 -23.3125 22.226562 -22.945312 23.03125 -22.21875 C 23.84375 -21.488281 24.25 -20.882812 24.25 -20.40625 C 24.25 -19.738281 23.941406 -18.992188 23.328125 -18.171875 C 22.722656 -17.347656 22.15625 -16.707031 21.625 -16.25 C 21.09375 -15.800781 20.351562 -15.222656 19.40625 -14.515625 C 19.332031 -14.429688 19.234375 -14.429688 19.109375 -14.515625 C 19.078125 -14.554688 19.078125 -14.613281 19.109375 -14.6875 C 19.628906 -15.195312 20.300781 -16.273438 21.125 -17.921875 C 21.945312 -19.578125 22.238281 -20.503906 22 -20.703125 C 20.039062 -20.671875 17.601562 -19.472656 14.6875 -17.109375 C 11.78125 -14.742188 9.289062 -12.164062 7.21875 -9.375 C 5.15625 -6.582031 4.125 -4.5 4.125 -3.125 Z M 4.125 -3.125 "/></g></g></g><g fill="#ffffff" fill-opacity="1"><g transform="translate(880.9984, 92.81498)"><g><path d="M 26.546875 -37.234375 C 23.285156 -33.535156 19.71875 -28.960938 15.84375 -23.515625 C 11.96875 -18.066406 8.925781 -13.140625 6.71875 -8.734375 C 9.90625 -12.117188 13.570312 -15.332031 17.71875 -18.375 C 21.875 -21.425781 24.503906 -22.953125 25.609375 -22.953125 C 26.273438 -22.953125 26.953125 -22.398438 27.640625 -21.296875 C 28.328125 -20.191406 28.492188 -19.460938 28.140625 -19.109375 C 27.203125 -18.398438 25.195312 -15.804688 22.125 -11.328125 C 19.050781 -6.847656 17.476562 -3.976562 17.40625 -2.71875 C 17.914062 -2.875 18.503906 -3.140625 19.171875 -3.515625 C 19.835938 -3.890625 20.613281 -4.421875 21.5 -5.109375 C 22.382812 -5.796875 23.179688 -6.421875 23.890625 -6.984375 C 24.597656 -7.554688 25.492188 -8.332031 26.578125 -9.3125 C 27.660156 -10.300781 28.46875 -11.03125 29 -11.5 C 29.53125 -11.976562 30.316406 -12.71875 31.359375 -13.71875 C 32.398438 -14.71875 33 -15.28125 33.15625 -15.40625 C 33.4375 -15.59375 33.632812 -15.550781 33.75 -15.28125 C 33.789062 -15.195312 33.769531 -15.117188 33.6875 -15.046875 C 26.375 -7.210938 21.144531 -2.375 18 -0.53125 C 17.363281 -0.132812 16.691406 0.160156 15.984375 0.359375 C 15.671875 0.429688 15.378906 0.429688 15.109375 0.359375 C 14.515625 0.160156 13.941406 -0.335938 13.390625 -1.140625 C 12.835938 -1.953125 12.5625 -2.632812 12.5625 -3.1875 C 12.5625 -4.757812 13.703125 -7.363281 15.984375 -11 C 18.265625 -14.644531 20.253906 -17.234375 21.953125 -18.765625 C 18.054688 -16.992188 13.804688 -13.925781 9.203125 -9.5625 L 6.25 -6.546875 C 4.40625 -4.578125 3.1875 -2.882812 2.59375 -1.46875 C 2.007812 -0.175781 2.328125 0.546875 3.546875 0.703125 C 2.953125 0.941406 2.300781 0.84375 1.59375 0.40625 C 1.351562 0.289062 0.988281 -0.0195312 0.5 -0.53125 C 0.0078125 -1.039062 -0.332031 -1.515625 -0.53125 -1.953125 C -0.882812 -2.847656 -0.3125 -4.929688 1.1875 -8.203125 C 3.894531 -14.378906 9.457031 -23.070312 17.875 -34.28125 C 20.269531 -37.582031 22.648438 -40.21875 25.015625 -42.1875 C 25.960938 -42.894531 26.710938 -43.25 27.265625 -43.25 C 28.953125 -43.25 30.40625 -42.539062 31.625 -41.125 C 32.019531 -40.65625 32.140625 -40.398438 31.984375 -40.359375 C 31.941406 -40.316406 31.859375 -40.335938 31.734375 -40.421875 C 30.640625 -40.960938 28.910156 -39.898438 26.546875 -37.234375 Z M 26.546875 -37.234375 "/></g></g></g><g fill="#ffffff" fill-opacity="1"><g transform="translate(907.249909, 92.81498)"><g><path d="M 13.515625 -4.890625 C 14.222656 -7.054688 15.363281 -9.179688 16.9375 -11.265625 C 15.394531 -9.734375 12.644531 -7.40625 8.6875 -4.28125 C 4.738281 -1.15625 2.238281 0.40625 1.1875 0.40625 C 1.0625 0.40625 0.882812 0.347656 0.65625 0.234375 C 0.101562 -0.0351562 -0.46875 -0.613281 -1.0625 -1.5 C -1.65625 -2.382812 -1.953125 -3.125 -1.953125 -3.71875 C -1.953125 -5.289062 -1.1875 -7.207031 0.34375 -9.46875 C 1.882812 -11.726562 3.804688 -13.878906 6.109375 -15.921875 C 8.410156 -17.972656 11.054688 -19.71875 14.046875 -21.15625 C 17.035156 -22.59375 19.828125 -23.3125 22.421875 -23.3125 C 23.753906 -23.3125 24.953125 -23.003906 26.015625 -22.390625 C 27.078125 -21.773438 27.609375 -20.84375 27.609375 -19.59375 C 27.609375 -18.726562 27.234375 -17.800781 26.484375 -16.8125 C 26.410156 -16.8125 26.351562 -16.832031 26.3125 -16.875 C 26.75 -17.65625 26.96875 -18.363281 26.96875 -19 C 26.96875 -20.8125 26.003906 -21.65625 24.078125 -21.53125 C 20.804688 -21.375 16.953125 -19.410156 12.515625 -15.640625 C 10.816406 -14.179688 9.148438 -12.4375 7.515625 -10.40625 C 5.890625 -8.382812 4.679688 -6.691406 3.890625 -5.328125 C 3.109375 -3.972656 2.816406 -3.238281 3.015625 -3.125 C 3.128906 -3.082031 3.265625 -3.082031 3.421875 -3.125 C 4.328125 -3.4375 6.34375 -4.679688 9.46875 -6.859375 C 12.59375 -9.046875 15.003906 -10.867188 16.703125 -12.328125 C 16.734375 -12.367188 17.269531 -12.878906 18.3125 -13.859375 C 19.363281 -14.847656 20.3125 -15.695312 21.15625 -16.40625 C 22 -17.113281 22.632812 -17.582031 23.0625 -17.8125 C 23.613281 -18.09375 24.28125 -17.710938 25.0625 -16.671875 C 25.851562 -15.628906 26.171875 -14.890625 26.015625 -14.453125 C 25.941406 -14.648438 25.410156 -14.207031 24.421875 -13.125 C 23.441406 -12.039062 22.367188 -10.679688 21.203125 -9.046875 C 20.046875 -7.421875 19.191406 -6.019531 18.640625 -4.84375 C 18.242188 -3.9375 18.046875 -3.265625 18.046875 -2.828125 C 20.367188 -3.492188 25.382812 -7.445312 33.09375 -14.6875 C 33.445312 -15 33.703125 -15.234375 33.859375 -15.390625 C 34.023438 -15.554688 34.164062 -15.539062 34.28125 -15.34375 L 34.28125 -15.046875 C 24.84375 -4.742188 18.742188 0.40625 15.984375 0.40625 C 15.710938 0.40625 15.378906 0.289062 14.984375 0.0625 C 14.515625 -0.21875 14.070312 -0.625 13.65625 -1.15625 C 13.238281 -1.6875 13.03125 -2.207031 13.03125 -2.71875 C 13.03125 -2.988281 13.191406 -3.710938 13.515625 -4.890625 Z M 13.515625 -4.890625 "/></g></g></g><g fill="#ffffff" fill-opacity="1"><g transform="translate(934.799224, 92.81498)"><g><path d="M 5.78125 -15.6875 C 8.144531 -19.15625 10.171875 -21.554688 11.859375 -22.890625 C 12.128906 -23.085938 12.40625 -23.1875 12.6875 -23.1875 C 13.394531 -23.1875 14.179688 -22.742188 15.046875 -21.859375 C 15.910156 -20.972656 16.34375 -20.15625 16.34375 -19.40625 C 16.34375 -19.289062 16.285156 -19.273438 16.171875 -19.359375 C 16.128906 -19.390625 16.085938 -19.414062 16.046875 -19.4375 C 16.003906 -19.457031 15.953125 -19.476562 15.890625 -19.5 C 15.835938 -19.519531 15.769531 -19.53125 15.6875 -19.53125 C 14.90625 -19.570312 13.332031 -18.035156 10.96875 -14.921875 C 8.570312 -11.703125 6.941406 -9.34375 6.078125 -7.84375 C 8.953125 -11.625 13.648438 -15.851562 20.171875 -20.53125 C 22.617188 -22.257812 24.390625 -23.1875 25.484375 -23.3125 C 25.835938 -23.34375 26.414062 -22.914062 27.21875 -22.03125 C 28.03125 -21.144531 28.335938 -20.585938 28.140625 -20.359375 C 28.023438 -20.234375 27.648438 -19.859375 27.015625 -19.234375 C 26.390625 -18.609375 25.800781 -18.007812 25.25 -17.4375 C 24.695312 -16.863281 24.066406 -16.160156 23.359375 -15.328125 C 22.648438 -14.503906 22 -13.640625 21.40625 -12.734375 C 20.820312 -11.835938 20.351562 -10.957031 20 -10.09375 C 22.675781 -10.320312 26.195312 -12.363281 30.5625 -16.21875 C 30.601562 -16.257812 30.679688 -16.28125 30.796875 -16.28125 C 30.910156 -16.28125 30.988281 -16.257812 31.03125 -16.21875 C 30.125 -15.039062 28.300781 -13.410156 25.5625 -11.328125 C 22.832031 -9.242188 20.585938 -8.203125 18.828125 -8.203125 C 18.304688 -8.203125 17.703125 -8.566406 17.015625 -9.296875 C 16.328125 -10.023438 15.984375 -10.582031 15.984375 -10.96875 C 15.984375 -11.757812 16.347656 -12.863281 17.078125 -14.28125 C 17.804688 -15.695312 18.582031 -16.875 19.40625 -17.8125 C 16.738281 -16.238281 14.546875 -14.753906 12.828125 -13.359375 C 11.117188 -11.960938 9.242188 -10.125 7.203125 -7.84375 C 5.546875 -6.039062 4.109375 -4.15625 2.890625 -2.1875 C 1.671875 -0.21875 1.359375 0.90625 1.953125 1.1875 C 1.160156 1.375 0.429688 1.132812 -0.234375 0.46875 C -0.898438 -0.195312 -1.351562 -0.984375 -1.59375 -1.890625 C -1.707031 -2.515625 -1.410156 -3.515625 -0.703125 -4.890625 C 0.515625 -7.648438 2.675781 -11.25 5.78125 -15.6875 Z M 5.78125 -15.6875 "/></g></g></g><g fill="#ffffff" fill-opacity="1"><g transform="translate(958.809019, 92.81498)"><g><path d="M 28.4375 -18.234375 C 27.570312 -17.328125 25.070312 -14.335938 20.9375 -9.265625 C 18.9375 -6.742188 16.144531 -2.4375 12.5625 3.65625 C 8.988281 9.75 5.960938 15.140625 3.484375 19.828125 C 5.640625 16.835938 8.425781 13.695312 11.84375 10.40625 C 15.269531 7.125 17.457031 5.328125 18.40625 5.015625 L 18.703125 5.375 C 14.921875 8.394531 11.257812 12.351562 7.71875 17.25 C 4.1875 22.15625 2.222656 25.507812 1.828125 27.3125 C 1.710938 27.4375 1.5 27.5 1.1875 27.5 C 0.125 27.613281 -0.679688 27.148438 -1.234375 26.109375 C -1.785156 25.066406 -2.003906 24.171875 -1.890625 23.421875 C -1.804688 22.515625 -0.976562 20.234375 0.59375 16.578125 C 2.75 11.859375 5.609375 6.410156 9.171875 0.234375 C 12.734375 -5.941406 16.34375 -11.132812 20 -15.34375 C 19.601562 -14.945312 18.921875 -14.242188 17.953125 -13.234375 C 16.992188 -12.234375 16.257812 -11.476562 15.75 -10.96875 C 15.238281 -10.457031 14.507812 -9.71875 13.5625 -8.75 C 12.625 -7.789062 11.859375 -7.046875 11.265625 -6.515625 C 10.679688 -5.984375 9.972656 -5.320312 9.140625 -4.53125 C 8.316406 -3.75 7.609375 -3.128906 7.015625 -2.671875 C 6.429688 -2.222656 5.820312 -1.765625 5.1875 -1.296875 C 4.5625 -0.828125 4 -0.460938 3.5 -0.203125 C 3.007812 0.046875 2.570312 0.210938 2.1875 0.296875 L 1.71875 0.296875 C 1.195312 0.296875 0.601562 -0.0351562 -0.0625 -0.703125 C -0.726562 -1.378906 -1.0625 -2.050781 -1.0625 -2.71875 C -1.0625 -3.9375 -0.40625 -5.8125 0.90625 -8.34375 C 2.226562 -10.882812 3.773438 -13.394531 5.546875 -15.875 C 7.628906 -18.863281 9.597656 -21.101562 11.453125 -22.59375 C 11.679688 -22.832031 11.953125 -22.953125 12.265625 -22.953125 C 12.972656 -22.953125 13.757812 -22.5 14.625 -21.59375 C 15.5 -20.6875 15.9375 -19.859375 15.9375 -19.109375 C 15.9375 -18.992188 15.875 -18.976562 15.75 -19.0625 C 15.707031 -19.09375 15.664062 -19.117188 15.625 -19.140625 C 15.59375 -19.160156 15.546875 -19.179688 15.484375 -19.203125 C 15.429688 -19.222656 15.363281 -19.234375 15.28125 -19.234375 C 14.488281 -19.347656 12.695312 -17.554688 9.90625 -13.859375 C 8.375 -11.898438 7.007812 -9.816406 5.8125 -7.609375 C 4.613281 -5.410156 4.015625 -3.894531 4.015625 -3.0625 C 5.273438 -3.570312 7.082031 -4.800781 9.4375 -6.75 C 11.800781 -8.695312 13.867188 -10.535156 15.640625 -12.265625 C 15.796875 -12.390625 17.335938 -13.945312 20.265625 -16.9375 C 23.191406 -19.925781 25.304688 -21.929688 26.609375 -22.953125 C 26.878906 -23.191406 27.175781 -23.3125 27.5 -23.3125 C 28.164062 -23.3125 28.941406 -22.859375 29.828125 -21.953125 C 30.710938 -21.046875 31.15625 -20.21875 31.15625 -19.46875 C 31.15625 -19.394531 31.078125 -19.375 30.921875 -19.40625 C 30.765625 -19.53125 30.625 -19.59375 30.5 -19.59375 C 30.03125 -19.664062 29.34375 -19.210938 28.4375 -18.234375 Z M 28.4375 -18.234375 "/></g></g></g><g fill="#ffffff" fill-opacity="1"><g transform="translate(983.239454, 92.81498)"><g/></g></g><g clip-path="url(#b4cece168f)"><g clip-path="url(#e630d5ac4f)"><path fill="#fdc8c0" d="M 674.566406 36.234375 L 686.207031 36.234375 L 686.207031 45.695312 L 674.566406 45.695312 Z M 674.566406 36.234375 " fill-opacity="1" fill-rule="nonzero"/></g></g></svg>